<svg xmlns="http://www.w3.org/2000/svg" version="1.1" xmlns:xlink="http://www.w3.org/1999/xlink" xmlns:svgjs="http://svgjs.dev/svgjs" width="1000" height="1000"><g clip-path="url(#SvgjsClipPath1035)"><rect width="1000" height="1000" fill="#ffffff"></rect><g transform="matrix(0.44025904842409275,0,0,0.44025904842409275,0,142.13102989799194)"><svg xmlns="http://www.w3.org/2000/svg" version="1.1" xmlns:xlink="http://www.w3.org/1999/xlink" xmlns:svgjs="http://svgjs.dev/svgjs" width="2271.39" height="1625.72"><svg xmlns="http://www.w3.org/2000/svg" width="2271.39" height="1625.72" viewBox="0 0 1703.54 1219.29"><clipPath id="cp0">
<path fill="gold" fill-rule="evenodd" d="M0 1219.3h1705.56V-.16H0Z"></path></clipPath><g clip-path="url(#cp0)"><path id="Layer-1" fill="#1a1a18" fill-rule="evenodd" d="m334.32 258.4 2.93-43.84h-3.03c-2.48 8.29-5.6 15.18-9.38 20.64l-34.44-84.31h-3.61l-34.76 80.08a62.36 62.36 0 0 1-3.08-6.4c-4.06-9.85-6.12-22.12-6.12-36.78 0-12.1 1.92-22.6 5.79-31.47 3.86-8.88 9.68-15.67 17.41-20.4 7.77-4.75 16.61-7.1 26.53-7.1 8.64 0 16.28 1.85 22.87 5.55 6.62 3.7 13.88 11.06 21.78 22.08l3.06-2.01c-6.69-11.87-14.49-20.55-23.4-26.06-8.9-5.48-19.5-8.24-31.74-8.24-22.09 0-39.2 8.2-51.3 24.65-9.05 12.24-13.59 26.63-13.59 43.17 0 13.35 3 25.62 8.94 36.78a65.8 65.8 0 0 0 16.66 20.5l-8.85 20.39c-2.55 5.93-4.36 9.54-5.4 10.85a17.44 17.44 0 0 1-6.06 4.82c-2.38 1.14-5.6 1.88-9.64 2.21v3.62h54.32v-3.62c-6.16-.6-10.15-1.64-12-3.14a7.2 7.2 0 0 1-2.74-5.8c0-3.25 1.51-8.37 4.52-15.3l1.93-4.44a66.77 66.77 0 0 0 26.07 5.12c9.62 0 19.1-2.36 28.48-7.1 2.6-1.38 4.53-2.12 5.72-2.18l3.11 7.62c3.08 7.6 4.63 12.86 4.63 15.81 0 1.88-.98 3.72-2.85 5.43-1.91 1.74-5.13 2.98-9.61 3.68l-1.68.3v3.62h40.76v-3.62c-4.69-.87-8.27-2.37-10.68-4.55-3.45-3.22-6.53-8.17-9.21-14.84Zm-45.79 83.01c42.9 0 80.9-20.88 104.42-53.02l-.02.03-.3.55-.28.56-.24.6-.2.6-.14.6-.12.63-.06.64-.03.63.02.64.07.62.1.63.16.62.2.6.23.58.28.58.3.55.29.36.3.34.35.32.37.28.38.25.42.2.42.18.44.14.45.1.46.05.46.02.47-.03.45-.06.45-.11.43-.14.43-.19.4-.21.4-.26.36-.28.33-.32.46-.48.43-.5.4-.52.37-.55.33-.56.31-.59.27-.6.23-.63.2-.63.14-.65.12-.64.07-.66.03-.66v-.66l-.02-.77-.06-.76-.1-.77-.15-.75-.19-.75-.22-.74-.25-.72-.3-.71-.34-.7-.3-.68-.34-.67-.37-.65-.42-.62-.44-.6-.48-.57-.51-.56-.53-.5c6.35-10.51 11.24-22 14.4-34.18v.35l.05.64.1.62.13.62.18.62.21.6.27.56.3.57.34.53.38.52.4.48.45.45.48.43.5.4.53.34.55.31.57.28.59.24.6.2.47.08.47.03h.46l.47-.03.46-.09.46-.11.43-.16.43-.2.4-.24.38-.27.36-.3.33-.33.3-.36.28-.39.23-.4.2-.42.15-.45.18-.77.14-.77.1-.79.06-.78.02-.8-.02-.79-.06-.78-.11-.79-.14-.77-.19-.77-.22-.75-.26-.75-.3-.73-.35-.71-.37-.7-.41-.67-.44-.66-.48-.63-.5-.6-.52-.52-.53-.5-.56-.45-.58-.42-.62-.4-.64-.35-.65-.3-.4-.23-.37-.26-.34-.3-.32-.34-.28-.36-.23-.4-.2-.41-.15-.44-.1-.44-.07-.42a130.32 130.32 0 0 0-.23-35.92l.12.59.17.67.23.65.25.63.29.63.33.6.37.6.4.54.44.55.46.5.5.48.52.45.55.41.57.39.6.34.61.3.64.28.65.24.66.19.67.14.68.12.68.06.69.04.69-.01.6-.09.58-.12.57-.17.56-.19.54-.24.54-.28.5-.3.5-.36.45-.37.44-.41.4-.44.37-.45.35-.5.31-.5.27-.53.23-.56.2-.56.16-.57.12-.59.07-.6.05-.59-.01-.6-.05-.59-.08-.6-.18-.81-.23-.82-.26-.8-.31-.78-.34-.77-.38-.75-.43-.73-.45-.72-.5-.68-.52-.65-.57-.63-.6-.6-.6-.58-.66-.53-.68-.51-.7-.47-.72-.42-.74-.4-.77-.36-.78-.32-.8-.27-.8-.24-.83-.2-.82-.15-.9-.16-.9-.2-.88-.24-.86-.29-.86-.32-.84-.35-.83-.4-.8-.43-.8-.46-.75-.5-.74-.53-.7-.56c-2.18-7.3-5-14.32-8.38-21.02l.4.63.54.76.57.72.61.72.64.66.67.65.7.62.72.57.75.56.78.5.8.48.81.44.84.4.85.35.87.33.89.28.9.24.9.2.68.16.68.12.7.09.68.04h.7l.68-.04.7-.09.67-.12.68-.17.66-.2.65-.25.64-.28.61-.33.6-.36.56-.4.55-.42.53-.45.48-.5.46-.51.43-.56.39-.57.36-.58.33-.62.24-.63.23-.63.17-.66.13-.66.09-.67.05-.68.01-.67-.03-.68-.07-.67-.12-.66-.16-.66-.19-.64-.23-.64-.28-.62-.32-.6-.35-.57-.38-.56-.42-.53-.44-.5-.5-.48-.5-.44-.53-.42-.55-.37-.59-.35-.92-.5-.94-.47-.95-.42-.97-.4-.99-.36-1-.32-1-.27-1.03-.25-1.02-.2-1.04-.16-1.04-.13-1.04-.08-1.04-.04h-1.05l-1.04.04-1.06.07-1.04.12-1.03.16-1.03.2-1.02.24-1.02.22-1 .28-1 .3-.98.35-.97.4-.94.44-.94.47-.9.52c-3.19-5.06-6.73-9.88-10.57-14.43l.03.03.74.49.76.45.77.43.8.39.82.35.83.3.84.28.85.24.86.2.87.15.88.12.88.08.88.03h.88l.89-.04.88-.08.88-.13.87-.17.86-.2.85-.25.84-.27.82-.32.82-.36.78-.4.78-.43.75-.46.73-.5.7-.53.48-.44.45-.45.42-.5.39-.51.35-.53.32-.57.27-.57.25-.6.2-.6.17-.63.13-.62.08-.64.06-.64v-.64l-.04-.64-.07-.64-.12-.63-.15-.63-.2-.6-.23-.6-.27-.6-.3-.55-.35-.55-.37-.52-.41-.5-.44-.46-.46-.44-.5-.41-.51-.38-.55-.34-.56-.31-.58-.28-.96-.4-.99-.34-.99-.32-1-.28-1.01-.23-1.02-.2-1.03-.15-1.03-.12-1.05-.07-1.04-.04-1.04.02-1.04.05-1.04.08-1.03.14-1.02.17-1.02.22-1.01.26-1 .29-.99.34-.97.37-.93.48-.91.52-.88.55-.86.6-.84.62-.82.66-.78.69-.76.73-.72.76-.7.77-.65.82-.63.84.02.03a129.9 129.9 0 0 0-19.44-15.43l.77.3.81.28.82.25.84.19.85.16.85.1.85.07.86.02.86-.02.86-.08.85-.1.84-.16.84-.2.83-.24.8-.28.8-.31.78-.38.76-.4.74-.44.7-.47.7-.51.66-.56.63-.58.61-.6.56-.65.55-.67.5-.7.28-.57.26-.58.22-.6.17-.61.14-.62.08-.64.06-.62v-.64l-.04-.64-.07-.64-.12-.62-.16-.62-.2-.6-.23-.59-.29-.57-.3-.55-.37-.54-.38-.5-.41-.48-.46-.45-.48-.41-.5-.4-.53-.35-.55-.32-.58-.27-.6-.25-.6-.2-.61-.16-.62-.11-.64-.08-.76-.04h-.77l-.76.04-.77.09-.75.12-.74.17-.75.2-.72.26-.71.29-.7.33-.66.36-.66.39-.63.44-.6.47-.59.5-.54.54-.52.56-.49.58-.62.62-.66.58-.68.55-.7.53-.74.48-.74.46-.78.42-.78.38-.81.35-.82.3-.84.28-.84.24-.86.19-.86.16-.87.11-.87.08-.87.03h-.88l-.87-.05-.87-.09-.88-.11-.86-.18-.85-.2-.85-.24-.58-.2c-5.26-2.27-10.7-4.2-16.29-5.76l.46.06.6.06h.61l.6-.03.61-.07.6-.13.58-.16.58-.2.55-.23.54-.29.52-.3.3-.25.29-.28.24-.3.21-.34.17-.35.14-.36.1-.37.06-.4.02-.37-.02-.4-.06-.38-.11-.38-.14-.36-.18-.34-.21-.33-.26-.3-.27-.28-.31-.24-.33-.21-.35-.17-.36-.14-.39-.1-.38-.05-.4-.01-.37.02-.4.06-.37.11-.36.15-.34.18-.33.22-.3.26-.26.27-.25.31-.2.33-.17.35-.14.37-.08.39-.12.42-.16.42-.18.39-.23.38-.26.35-.3.34-.31.3-.34.28-.37.23-.4.2-.41.17-.42.13-.43.1-.44.04h-.44l-.44-.02-.16-.03c-9.6-2.27-19.6-3.48-29.89-3.48-71.42 0-129.32 57.9-129.32 129.32 0 71.43 57.9 129.32 129.32 129.32ZM330.8 93.07l.03.04.64.2-.67-.24Zm.75.27.62.23.65.3.62.3.6.37.6.4.56.43.53.47.5.49.49.52.44.55.42.57.38.6.34.61.3.64.27.66.24.67.19.68.15.69.11.69.07.71.03.7-.01.71-.06.7-.1.7-.13.7-.18.69-.21.67-.26.66-.28.64-.33.63-.37.6-.32.37-.37.34-.38.3-.4.27-.44.24-.44.2-.47.16-.47.11-.49.08-.49.03-.48-.01-.5-.06-.47-.1-.48-.13-.46-.18-.43-.21-.41-.26-.4-.28-.37-.33-.34-.35-.3-.39-.28-.4-.24-.44-.2-.44-.16-.47-.12-.47-.07-.49-.04-.48v-.5l.06-.48.1-.48.13-.48.17-.45.22-.44.25-.42.25-.73.19-.73.16-.74.11-.76.08-.75.03-.77-.01-.76-.05-.76-.1-.76-.14-.74-.18-.75-.22-.72-.26-.72-.3-.7-.34-.68-.38-.66-.41-.64-.46-.62h.07a126.17 126.17 0 0 0-38.15-5.88c-69.74 0-126.28 56.54-126.28 126.28 0 69.74 56.54 126.28 126.28 126.28 69.75 0 126.28-56.54 126.28-126.28 0-1.08-.01-2.15-.04-3.22l-.19 1.67-.23 1.69-.26 1.68-.31 1.68-.35 1.67-.22.97-.26.94-.3.95-.34.92-.38.92-.43.89-.45.87-.5.86-.54.83-.58.8-.6.78-.64.76-.37.45-.4.43-.42.4-.46.37-.48.34-.5.3-.53.27-.53.23-.56.18-.56.15-.58.1-.58.08-.59.02-.58-.02-.58-.06-.39-.07.01.01-.85 1.79-.88 1.76-.91 1.74-.96 1.74-1 1.7-1.02 1.68-1.06 1.67-1.1 1.64-1.13 1.61-1.17 1.6-1.19 1.57-1.23 1.54-1.26 1.52-1.3 1.49-1.33 1.46-1.35 1.44-.23.67-.27.66-.3.64-.33.63-.37.6-.4.59-.46.55-.46.54-.5.51-.52.48-.54.45-.58.41-.6.4-.6.34-.52.25-.52.2-.53.17-.55.13-.55.08-.57.04h-.55l-.56-.03-.56-.08-.55-.12-.53-.17-.53-.19-.37-.26-.36-.3-.33-.32-.3-.35-.27-.37-.23-.4-.2-.42-.16-.44-.12-.43-.08-.46-.05-.46v-.46l.04-.46.08-.46.12-.44.15-.43.2-.42.22-.4.27-.38.3-.35.32-.33.36-.3.37-.26.58-.32.6-.3.61-.25.63-.22.64-.18.64-.14.66-.1.66-.08.67-.02.66.01.67.06.66.08.65.13.64.17.63.2.62.25.6.27.59.33a92 92 0 0 0 4.11-4.55l-.31.3-.34.27-.35.24-.38.2-.4.15-.42.13-.43.07-.42.05-.44-.01-.42-.06-.43-.08-.4-.13-.4-.17-.38-.21-.35-.25-.33-.27-.3-.32-.27-.33-.23-.36-.2-.4-.15-.39-.12-.41-.07-.43-.04-.43.01-.43.05-.43.14-.54.2-.54.23-.52.27-.5.3-.47.32-.46.37-.44.4-.4.42-.37.68-.55.7-.51.71-.5.75-.45.76-.41.79-.39.8-.35.8-.3.83-.27.84-.22.85-.2.86-.15.86-.11.87-.07.86-.04.87.01.88.06-.03.05c1.6-2.7 3.07-5.47 4.4-8.32h.02l-.17-.07-.52-.27-.5-.3-.48-.32-.46-.38-.43-.39-.4-.42-.37-.46-.33-.49-.3-.5-.26-.52-.23-.54-.18-.56-.15-.57-.1-.57-.01-.73.04-.74.07-.72.12-.72.16-.71.2-.7.24-.7.27-.66.32-.66.35-.64.38-.62.43-.6.46-.56.48-.55.52-.52.55-.48.57-.45.6-.42.61-.38.65-.35.66-.3.67-.28.7-.24.7-.19.76-.1.76-.13.11-.03c.55-2.57.98-5.15 1.3-7.74l-.1.54-.16.62-.22.62-.25.59-.29.57-.33.55-.37.53-.4.5-.44.48-.47.43-.5.4-.52.38-.55.34-.57.28-.5.2-.51.16-.52.13-.53.09-.53.03h-.55l-.53-.04-.53-.09-.52-.13-.51-.17-.5-.2-.48-.24-.45-.28-.44-.32-.4-.34-.39-.38-.35-.4-.31-.44-.3-.46-.24-.47-.2-.5-.18-.5-.13-.52-.1-.53-.03-.54-.01-.53.03-.54.08-.53.12-.52.16-.82.21-.8.25-.81.28-.79.33-.76.36-.76.4-.73.44-.71.48-.7.5-.66.54-.64.57-.6.6-.59.63-.55.66-.52.68-.5.7-.44.73-.42.74-.38.76-.35.55-.27.5-.33.5-.36.48-.4.43-.42.4-.47.38-.49.34-.5.3-.54.25-.56.21-.57.18-.59.13-.6.09-.6.04-.61v-.62l-.04-.45a91.72 91.72 0 0 0-3.28-15.73l-.07.25-.25.8-.28.77-.32.75-.37.74-.4.72-.43.7-.48.68-.33.45-.36.43-.4.4-.42.37-.45.34-.47.31-.5.27-.51.23-.53.2-.54.15-.56.12-.55.07-.56.03h-.56l-.57-.06-.56-.1-.54-.12-.54-.17-.52-.21-.5-.26-.5-.29-.46-.31-.63-.58-.6-.6-.57-.63-.53-.66-.5-.69-.46-.71-.43-.73-.4-.76-.34-.77-.32-.79-.27-.8-.23-.83-.18-.82-.15-.84-.1-.84-.06-.85-.02-.85.03-.85.06-.85.14-.9.17-.9.2-.88.26-.88.3-.86.33-.85.37-.83.41-.82.45-.78.48-.78.52-.75.55-.73.58-.7.62-.67.65-.63.67-.62.7-.57.73-.56.76-.5.77-.48.8-.44.02.03a127 127 0 0 0-27.76-30.25l.02.02.63.74.6.77.57.8.53.81.49.85.45.86.42.88.37.9.38.8.34.81.31.82.28.84.22.84.2.86.15.86.12.87.07.87.03.88v.87l-.04.89-.08.87-.16.65-.2.64-.25.63-.28.62-.31.58-.35.57-.39.56-.42.52-.45.5-.49.46-.5.44-.54.41-.56.37-.58.33-.61.3-.62.27-.63.22-.64.18-.66.14-.67.1-.67.06-.67.02-.67-.02-.67-.07-.67-.1-.65-.15-.64-.2-.64-.22-.62-.26-.62-.36-.6-.4-.58-.42-.55-.46-.53-.49-.5-.52-.48-.54-.44-.56-.4-.6-.38-.61-.34-.64-.3-.65-.27-.67-.23-.68-.2-.7-.14-.7-.1-.71-.08-.71-.03-.72v-.73l.06-.7.09-.72.12-.71.17-.7.2-.7.25-.66.29-.67.31-.64.4-.76.38-.8.34-.79.29-.8.26-.83.21-.84.19-.84.13-.86.11-.85.05-.87.02-.86-.02-.86-.05-.86-.1-.87-.14-.86-.19-.83-.22-.84-.25-.82-.3-.82-.33-.8-.37-.77.13.06a125.81 125.81 0 0 0-21.02-9.9Zm82.92 109.43-.03.09-.31.7-.35.68-.4.67-.43.63-.46.62-.5.58-.54.57-.56.52-.59.49-.62.45-.64.43-.67.38-.69.35-.71.3-.11.05.4-2 .33-2 .3-1.99.26-2 .21-2.02.16-2.01.13-2.02.08-2.03.03-2.02v-2.03l-.05-2.02-.09-2.03-.13-2.02-.18-2.01-.23-2.01-.26-2-.31-2-.35-2-.4-1.99-.43-1.98-.48-1.96-.52-1.96-.56-1.94-.6-1.93-.64-1.92-.05-.58-.26-.61a125.51 125.51 0 0 1 11.25 43.57ZM300.25 86.4l.7.02.7.07.71.1.7.15.68.2.67.23.66.28.63.3.62.35.59.39.57.42.54.46.52.49.48.52.45.54.42.57.38.6.34.62.31.64.27.66.22.67.2.69.13.69.1.7.06.71.01.7-.03.72-.07.7-.11.7-.16.69-.2.68-.24.67-.24.42-.28.42-.3.38-.35.35-.36.32-.4.29-.42.25-.44.21-.46.18-.47.14-.47.1-.5.05-.48.01-.49-.04-.49-.08-.48-.11-.45-.15-.46-.2-.42-.24-.4-.27-.4-.31-.35-.33-.32-.37-.3-.4-.25-.42-.22-.44-.18-.45-.13-.47-.1-.48-.05-.49-.01-.48.03-.5.06-.48.12-.48.16-.47.34-.5.3-.54.28-.55.24-.56.19-.59.16-.6.11-.6.08-.62.03-.61-.01-.62-.05-.61-.09-.61-.14-.6-.17-.59-.21-.57-.25-.57-.3-.55-.31-.52-.36-.5Zm107.62 167 1.3-3.98-.6-.28-.64-.23-.64-.2-.65-.15-.66-.12-1.21-.17-1.21-.12-1.22-.07-1.23-.02h-1.23l-1.2.07-1.23.11-1.21.16-1.21.19-.6.12-.6.15-.58.19-.57.23-.55.26-.55.3-.5.33-.5.36-.47.4-.45.42-.41.45-.38.48-.36.5-.32.53-.3.54-.25.55-.2.57-.11.52-.08.54-.02.53.01.53.05.53.1.52.14.52.18.5.21.49.25.47.3.44.32.43.35.39.4.37.4.33.44.31.46.26.48.24.5.19.5.15.53.12.53.06.53.03.53-.01.53-.05.52-.1.52-.14.88-.3.85-.34.85-.39.81-.41.81-.46.54-.33a89.84 89.84 0 0 1-12.46 18.34l-.5-.24-.8-.3-.8-.28-.83-.22-.83-.19-1.04-.2-1.05-.16-1.05-.11-1.07-.08-1.05-.04-1.06.01-1.06.05-1.06.1-1.06.13-1.04.18-1.04.2-1.03.26-1.02.31-.5.27-.5.3-.49.35-.45.37-.42.4-.4.44-.36.45-.33.48-.29.51-.25.52-.23.55-.18.56-.13.56-.1.58-.06.58-.01.58.02.59.06.58.1.57.16.58.19.55.28.43.32.39.34.37.38.35.4.32.43.28.45.25.46.21.47.18.5.14.5.1.5.07.51.02.51-.02.51-.05.51-.1.5-.12.47-.17.47-.22.45-.23.43-.29.4-.3a88.1 88.1 0 0 1-10.86 7.62l-.55-.5-.58-.45-.62-.43-.63-.39-.65-.35-.67-.32-.7-.28-.7-.24-.7-.2-.74-.16-.73-.12-.74-.07-.74-.04h-.74l-.75.05-.73.08-.73.13-.72.17-.72.21-.7.25-.68.28-.67.33-.38.23-.35.26-.33.3-.3.32-.27.35-.24.37-.19.4-.17.4-.11.43-.09.44-.05.44v.43l.04.45.07.43.12.43.16.41.2.4.23.37.26.36.29.32.33.3.35.27.37.23.4.2.4.17.69.15.69.13.7.1.7.04.71.01.7-.02.7-.08.7-.1.68-.14.7-.18.66-.21.65-.26.65-.28.63-.33.6-.35.59-.4.56-.42.54-.45.51-.49.49-.5.47-.54.42-.55 1.73-1.03 1.72-1.06 1.7-1.1 1.66-1.13 1.64-1.16 1.61-1.21 1.6-1.24 1.56-1.27 1.54-1.3 1.5-1.33 1.48-1.38 1.46-1.4 1.42-1.42 1.38-1.47 1.36-1.48 1.33-1.52 1.3-1.54 1.26-1.58 1.22-1.6 1.2-1.63 1.15-1.64 1.13-1.67 1.08-1.7 1.05-1.72 1.01-1.74.98-1.77.93-1.78.9-1.8.36-.3.69-.62.66-.65.62-.67.6-.71.57-.72.54-.76.5-.77Zm-89.1-11.14c-.64.58-1.28 1.12-1.93 1.64-7.53 5.98-16.54 8.97-27.1 8.97-8.81 0-16.81-2.25-23.94-6.75l-.08-.05 28.13-64.82Z" data-name="Layer 1" transform="matrix(2.7777777 0 0 -2.7777777 25 1194.3)"></path></g></svg></svg></g></g><defs><clipPath id="SvgjsClipPath1035"><rect width="1000" height="1000" x="0" y="0" rx="350" ry="350"></rect></clipPath></defs></svg>